<svg xmlns="http://www.w3.org/2000/svg" version="1.1" xmlns:xlink="http://www.w3.org/1999/xlink" xmlns:svgjs="http://svgjs.dev/svgjs" width="2000" height="1247" viewBox="0 0 2000 1247"><g transform="matrix(1,0,0,1,-1.2121212121212466,0.504858299595071)"><svg viewBox="0 0 396 247" data-background-color="#ffffff" preserveAspectRatio="xMidYMid meet" height="1247" width="2000" xmlns="http://www.w3.org/2000/svg" xmlns:xlink="http://www.w3.org/1999/xlink"><g id="tight-bounds" transform="matrix(1,0,0,1,0.2400000000000091,-0.09999999999999432)"><svg viewBox="0 0 395.52 247.2" height="247.2" width="395.52"><g><svg></svg></g><g><svg viewBox="0 0 395.52 247.2" height="247.2" width="395.52"><mask id="a036f0af-415a-4d68-808e-edda3c078965"><rect width="640" height="400" fill="white"></rect><g transform="matrix(1,0,0,1,19.998202247191017,75.32854778824426)"><svg viewBox="0 0 355.52359550561795 96.54290442351146" height="96.54290442351146" width="355.52359550561795"><g><svg viewBox="0 0 355.52359550561795 96.54290442351146" height="96.54290442351146" width="355.52359550561795"><g><svg viewBox="0 0 355.52359550561795 96.54290442351146" height="96.54290442351146" width="355.52359550561795"><g><svg viewBox="0 0 355.52359550561795 96.54290442351146" height="96.54290442351146" width="355.52359550561795"><g id="SvgjsG1407"><svg viewBox="0 0 355.52359550561795 96.54290442351146" height="96.54290442351146" width="355.52359550561795" id="SvgjsSvg1406"><g><svg viewBox="0 0 355.52359550561795 96.54290442351146" height="96.54290442351146" width="355.52359550561795"><g transform="matrix(1,0,0,1,0,0)"><svg width="355.52359550561795" viewBox="-0.9199999999999999 -41.55 165.03684210526316 45.55" height="96.54290442351146" data-palette-color="#232e33"><path d="M9.42-37.55L9.42-31.81 3.08-31.81 3.08-37.55 9.42-37.55ZM9.42-26.39L9.42 0 3.08 0 3.08-26.39 9.42-26.39ZM51.14-8.91L51.14-7.69Q51.14-6.52 50.74-5.18 50.34-3.83 49.42-2.69 48.51-1.54 47.04-0.77 45.58 0 43.45 0L43.45 0 19.36 0Q18.67 0 18.09-0.24 17.5-0.49 17.08-0.92 16.65-1.34 16.4-1.93 16.16-2.51 16.16-3.2L16.16-3.2 16.16-31.81Q16.16-32.47 16.4-33.06 16.65-33.64 17.08-34.08 17.5-34.52 18.09-34.77 18.67-35.01 19.36-35.01L19.36-35.01 40.6-35.01Q41.77-35.01 43.11-34.59 44.46-34.18 45.62-33.26 46.77-32.35 47.54-30.88 48.31-29.42 48.31-27.29L48.31-27.29 48.31-26.1Q48.31-24.41 47.75-22.47 47.19-20.53 45.94-18.8L45.94-18.8Q47.02-18.14 47.96-17.21 48.9-16.28 49.61-15.06 50.31-13.84 50.73-12.3 51.14-10.77 51.14-8.91L51.14-8.91ZM44.8-7.74L44.8-8.91Q44.8-10.16 44.41-11.15 44.02-12.13 43.31-12.84 42.6-13.55 41.6-13.93 40.6-14.31 39.35-14.31L39.35-14.31 25.05-14.31 25.05-20.7 36.5-20.7Q37.74-20.7 38.74-21.08 39.74-21.46 40.45-22.17 41.16-22.88 41.54-23.86 41.92-24.85 41.92-26.1L41.92-26.1 41.92-27.29Q41.92-28.66 40.6-28.66L40.6-28.66 22.51-28.66 22.51-6.35 43.45-6.35Q43.63-6.35 43.87-6.37 44.11-6.4 44.31-6.52 44.5-6.64 44.65-6.93 44.8-7.23 44.8-7.74L44.8-7.74ZM62.4-37.55L62.4-31.81 56.05-31.81 56.05-37.55 62.4-37.55ZM62.4-26.39L62.4 0 56.05 0 56.05-26.39 62.4-26.39ZM84.54-14.4L99.48 0 90.32 0 77.53-12.35Q76.46-13.33 76.53-14.79L76.53-14.79Q76.58-15.48 76.88-16.08 77.19-16.67 77.73-17.09L77.73-17.09 89.32-26.44 99.48-26.44 84.54-14.4ZM74.92-37.55L74.92 0 68.57 0 68.57-37.55 74.92-37.55ZM130.58-17.65L130.58-17.65Q130.58-16.33 130.12-14.81 129.65-13.28 128.62-11.98 127.58-10.67 125.91-9.79 124.23-8.91 121.84-8.91L121.84-8.91 110.39-8.91 110.39-14.94 121.84-14.94Q123.13-14.94 123.84-15.73 124.55-16.53 124.55-17.7L124.55-17.7Q124.55-18.95 123.76-19.65 122.96-20.36 121.84-20.36L121.84-20.36 110.39-20.36Q109.1-20.36 108.39-19.57 107.68-18.77 107.68-17.6L107.68-17.6 107.68-8.74Q107.68-7.47 108.47-6.76 109.27-6.05 110.44-6.05L110.44-6.05 121.84-6.05 121.84 0 110.39 0Q109.07 0 107.55-0.46 106.02-0.93 104.71-1.97 103.41-3 102.53-4.68 101.65-6.35 101.65-8.74L101.65-8.74 101.65-17.65Q101.65-18.97 102.11-20.5 102.58-22.02 103.62-23.33 104.65-24.63 106.33-25.51 108-26.39 110.39-26.39L110.39-26.39 121.84-26.39Q123.16-26.39 124.68-25.93 126.21-25.46 127.52-24.43 128.82-23.39 129.7-21.72 130.58-20.04 130.58-17.65ZM159.85-24.44L159.85-24.44Q160.24-23.54 160.06-22.61 159.88-21.68 159.22-21L159.22-21 144.54-6.35 159.8-6.35 159.8 0 136.9 0Q135.93 0 135.13-0.55 134.34-1.1 133.95-1.95L133.95-1.95Q133.58-2.86 133.76-3.8 133.95-4.74 134.66-5.44L134.66-5.44 149.26-20.04 134-20.04 134-26.39 156.95-26.39Q157.9-26.39 158.69-25.88 159.48-25.37 159.85-24.44Z" opacity="1" transform="matrix(1,0,0,1,0,0)" fill="black" class="wordmark-text-0" id="SvgjsPath1405" stroke-width="7" stroke="black" stroke-linejoin="round"></path></svg></g></svg></g></svg></g></svg></g><g></g></svg></g></svg></g></svg></g></mask><g transform="matrix(1,0,0,1,19.998202247191017,75.32854778824426)"><svg viewBox="0 0 355.52359550561795 96.54290442351146" height="96.54290442351146" width="355.52359550561795"><g><svg viewBox="0 0 355.52359550561795 96.54290442351146" height="96.54290442351146" width="355.52359550561795"><g><svg viewBox="0 0 355.52359550561795 96.54290442351146" height="96.54290442351146" width="355.52359550561795"><g><svg viewBox="0 0 355.52359550561795 96.54290442351146" height="96.54290442351146" width="355.52359550561795"><g id="textblocktransform"><svg viewBox="0 0 355.52359550561795 96.54290442351146" height="96.54290442351146" width="355.52359550561795" id="textblock"><g><svg viewBox="0 0 355.52359550561795 96.54290442351146" height="96.54290442351146" width="355.52359550561795"><g transform="matrix(1,0,0,1,0,0)"><svg width="355.52359550561795" viewBox="-0.9199999999999999 -41.55 165.03684210526316 45.55" height="96.54290442351146" data-palette-color="#232e33"><path d="M9.42-37.55L9.42-31.81 3.08-31.81 3.08-37.55 9.42-37.55ZM9.42-26.39L9.42 0 3.08 0 3.08-26.39 9.42-26.39ZM51.14-8.91L51.14-7.69Q51.14-6.52 50.74-5.18 50.34-3.83 49.42-2.69 48.51-1.54 47.04-0.77 45.58 0 43.45 0L43.45 0 19.36 0Q18.67 0 18.09-0.24 17.5-0.49 17.08-0.92 16.65-1.34 16.4-1.93 16.16-2.51 16.16-3.2L16.16-3.2 16.16-31.81Q16.16-32.47 16.4-33.06 16.65-33.64 17.08-34.08 17.5-34.52 18.09-34.77 18.67-35.01 19.36-35.01L19.36-35.01 40.6-35.01Q41.77-35.01 43.11-34.59 44.46-34.18 45.62-33.26 46.77-32.35 47.54-30.88 48.31-29.42 48.31-27.29L48.31-27.29 48.31-26.1Q48.31-24.41 47.75-22.47 47.19-20.53 45.94-18.8L45.94-18.8Q47.02-18.14 47.96-17.21 48.9-16.28 49.61-15.06 50.31-13.84 50.73-12.3 51.14-10.77 51.14-8.91L51.14-8.91ZM44.8-7.74L44.8-8.91Q44.8-10.16 44.41-11.15 44.02-12.13 43.31-12.84 42.6-13.55 41.6-13.93 40.6-14.31 39.35-14.31L39.35-14.31 25.05-14.31 25.05-20.7 36.5-20.7Q37.74-20.7 38.74-21.08 39.74-21.46 40.45-22.17 41.16-22.88 41.54-23.86 41.92-24.85 41.92-26.1L41.92-26.1 41.92-27.29Q41.92-28.66 40.6-28.66L40.6-28.66 22.51-28.66 22.51-6.35 43.45-6.35Q43.63-6.35 43.87-6.37 44.11-6.4 44.31-6.52 44.5-6.64 44.65-6.93 44.8-7.23 44.8-7.74L44.8-7.74ZM62.4-37.55L62.4-31.81 56.05-31.81 56.05-37.55 62.4-37.55ZM62.4-26.39L62.4 0 56.05 0 56.05-26.39 62.4-26.39ZM84.54-14.4L99.48 0 90.32 0 77.53-12.35Q76.46-13.33 76.53-14.79L76.53-14.79Q76.58-15.48 76.88-16.08 77.19-16.67 77.73-17.09L77.73-17.09 89.32-26.44 99.48-26.44 84.54-14.4ZM74.92-37.55L74.92 0 68.57 0 68.57-37.55 74.92-37.55ZM130.58-17.65L130.58-17.65Q130.58-16.33 130.12-14.81 129.65-13.28 128.62-11.98 127.58-10.67 125.91-9.79 124.23-8.91 121.84-8.91L121.84-8.91 110.39-8.91 110.39-14.94 121.84-14.94Q123.13-14.94 123.84-15.73 124.55-16.53 124.55-17.7L124.55-17.7Q124.55-18.95 123.76-19.65 122.96-20.36 121.84-20.36L121.84-20.36 110.39-20.36Q109.1-20.36 108.39-19.57 107.68-18.77 107.68-17.6L107.68-17.6 107.68-8.74Q107.68-7.47 108.47-6.76 109.27-6.05 110.44-6.05L110.44-6.05 121.84-6.05 121.84 0 110.39 0Q109.07 0 107.55-0.46 106.02-0.93 104.71-1.97 103.41-3 102.53-4.68 101.65-6.35 101.65-8.74L101.65-8.74 101.65-17.65Q101.65-18.97 102.11-20.5 102.58-22.02 103.62-23.33 104.65-24.63 106.33-25.51 108-26.39 110.39-26.39L110.39-26.39 121.84-26.39Q123.16-26.39 124.68-25.93 126.21-25.46 127.52-24.43 128.82-23.39 129.7-21.72 130.58-20.04 130.58-17.65ZM159.85-24.44L159.85-24.44Q160.24-23.54 160.06-22.61 159.88-21.68 159.22-21L159.22-21 144.54-6.35 159.8-6.35 159.8 0 136.9 0Q135.93 0 135.13-0.55 134.34-1.1 133.95-1.95L133.95-1.95Q133.58-2.86 133.76-3.8 133.95-4.74 134.66-5.44L134.66-5.44 149.26-20.04 134-20.04 134-26.39 156.95-26.39Q157.9-26.39 158.69-25.88 159.48-25.37 159.85-24.44Z" opacity="1" transform="matrix(1,0,0,1,0,0)" fill="#232e33" class="wordmark-text-0" data-fill-palette-color="primary" id="text-0"></path></svg></g></svg></g></svg></g></svg></g><g></g></svg></g></svg></g></svg></g><g mask="url(#a036f0af-415a-4d68-808e-edda3c078965)"><g transform="matrix(6.210662542217732, 0, 0, 6.210662542217732, 1, 5.7445350147880845)"><svg xmlns="http://www.w3.org/2000/svg" xmlns:xlink="http://www.w3.org/1999/xlink" version="1.1" x="0" y="0" viewBox="2.926999999999998 18.07437765606325 63.362 37.95262234393677" enable-background="new 0 0 72 72" xml:space="preserve" height="37.95262234393677" width="63.362" class="icon-none" data-fill-palette-color="accent" id="none"><g fill="#ed2647" data-fill-palette-color="accent"><path d="M53.823 31.094c-1.77 0-3.45 0.374-4.976 1.039L48.2 30.01l0.168-0.054c0.043-0.015 0.067-0.061 0.054-0.104l-0.042-0.129c-0.013-0.043-0.061-0.067-0.104-0.053l-0.162 0.052-0.658-2.146c-0.291-0.955-0.586-1.911-0.882-2.864l0.107-0.035c0.044-0.014 0.067-0.061 0.056-0.104l-0.042-0.129c-0.014-0.042-0.062-0.067-0.104-0.053l-0.105 0.033-0.047 0.015L45.965 23.1h3.5c0.083 0 0.184 0.003 0.296 0.012l0.038-0.499-0.036 0.499c0.731 0.053 3.117 0.392 3.117 2.523 0 2.158-2.255 2.54-2.351 2.555l0.151 0.988c1.106-0.167 3.199-1.124 3.199-3.543 0-2.378-2.089-3.378-4.043-3.52l0 0c-0.142-0.011-0.268-0.015-0.372-0.015h-3.83v0.065l-0.015-0.042-1.098 0.348 0.819 2.318-0.095 0.03c-0.043 0.014-0.067 0.062-0.054 0.104l0.041 0.128c0.015 0.044 0.062 0.068 0.104 0.055l0.104-0.034c0.046 0.14 0.091 0.276 0.137 0.415H25.409l-0.166-0.566-0.11-0.377-0.057 0.017-1.056-3.656c-0.029-0.112-0.097-0.339-0.646-0.594l0.12-0.006c0.211-0.011 0.498-0.13 0.654-0.271l0.752-0.678c0.224 0.004 0.39 0.016 0.432 0.04 0.146 0.083 1.037 0.104 1.368 0.104 0.333 0 0.851 0.021 0.934 0.021s0.331-0.207-0.062-0.456c-0.395-0.249-0.975-0.747-2.695-0.747s-4.851 0-5.101 0c-0.249 0-0.593-0.041-0.87-0.124-0.324-0.097-1.493-0.165-1.679-0.083-0.188 0.083-0.153 0.283 0.166 0.582 0.214 0.199 0.59 0.557 0.801 0.662 0.164 0.083 0.746 0.316 1.372 0.467l0.331 0.367c0.141 0.154 0.408 0.27 0.623 0.27 0.01 0 0.021 0 0.029-0.001l1.043-0.054c-0.008 0.049-0.012 0.099-0.012 0.151 0 0.44 0.228 0.811 0.839 0.825 0.206 0.004 0.514-0.059 0.736-0.158 0.003 0.001 0.006 0.003 0.01 0.004l1.036 3.591-0.103 0.03 0.11 0.378 0.366 1.243c-0.005 0.01-0.01 0.018-0.015 0.025l-0.297 0.539-0.595 1.075L22.48 30.26l-1.202 2.146c-0.024 0.043-0.049 0.087-0.073 0.13-1.736-0.917-3.712-1.442-5.812-1.442-6.885 0-12.466 5.582-12.466 12.467 0 6.886 5.581 12.466 12.466 12.466 5.063 0 9.413-3.023 11.364-7.358l2.779 0.34c0.424 0.168 0.883 0.268 1.367 0.268 2.052 0 3.716-1.664 3.716-3.717 0-0.819-0.273-1.569-0.722-2.183l12.966-14.028 0.234 0.698-0.164 0.052c-0.044 0.015-0.068 0.062-0.054 0.105l0.042 0.129c0.012 0.043 0.061 0.066 0.104 0.053l0.167-0.054 0.749 2.238c-3.919 2.101-6.585 6.234-6.585 10.991 0 6.886 5.581 12.466 12.467 12.466s12.466-5.58 12.466-12.466C66.289 36.676 60.709 31.094 53.823 31.094zM22.838 20.088c-0.126-0.209-0.332-0.348-0.567-0.348-0.256 0-0.479 0.165-0.598 0.409l-1.137 0.058c-0.145 0.008-0.357-0.08-0.455-0.188l-0.104-0.114c0.204 0.033 0.403 0.053 0.588 0.05 0.905-0.014 1.265-0.456 1.596-0.519 0.332-0.062 0.975-0.062 0.975-0.062 0.235 0 0.869-0.021 1.397-0.022l-0.551 0.495c-0.113 0.104-0.347 0.199-0.501 0.207L22.838 20.088zM21.842 32.718l1.183-2.156 1.195-2.149 0.597-1.074 0.01-0.016 4.373 14.845-1.41 0.082c-0.418-4-2.733-7.426-6.024-9.39C21.79 32.812 21.816 32.765 21.842 32.718zM28.501 47.565c0 0-0.397-0.412-0.602-1.035-0.049-0.152-0.08-0.3-0.102-0.438l1.654 0.262 0.274 0.043c-0.009 0.026-0.008 0.053-0.02 0.078l-0.458 0.967C29.093 47.774 28.755 47.829 28.501 47.565zM16.509 42.718l1.83-3.506 1.158-2.171 1.168-2.164c0.145-0.268 0.291-0.534 0.437-0.802 2.884 1.74 4.913 4.746 5.301 8.255l-9.771 0.568C16.6 42.829 16.562 42.763 16.509 42.718zM26.425 42.58c0.028 0.324 0.05 0.65 0.05 0.981 0 0.354-0.021 0.702-0.053 1.047l-9.703-1.461c0 0 0-0.001-0.001-0.002L26.425 42.58zM29.662 44.705l-1.062-0.138c-0.362-0.046-0.52-0.35-0.348-0.674 0 0 0.27-0.504 0.799-0.89 0.112-0.081 0.225-0.144 0.334-0.201l0.554 1.879C29.851 44.707 29.757 44.717 29.662 44.705zM30.636 43.232l-0.201-0.683c0.184 0.074 0.286 0.258 0.237 0.505L30.636 43.232zM30.902 45.053c0.329 0 0.597 0.268 0.597 0.597s-0.268 0.597-0.597 0.597c-0.33 0-0.598-0.268-0.598-0.597S30.572 45.053 30.902 45.053zM27.854 43.443c-0.003-0.317-0.021-0.632-0.048-0.943l1.097-0.064C28.49 42.701 28.133 43.042 27.854 43.443zM31.39 44.256c-0.021-0.046-0.047-0.09-0.057-0.142l-0.198-1.052c-0.067-0.359 0.173-0.603 0.534-0.539 0 0 0.469 0.094 0.952 0.4L31.39 44.256zM15.393 54.643c-6.119 0-11.081-4.961-11.081-11.082 0-6.12 4.962-11.082 11.081-11.082 1.854 0 3.597 0.461 5.132 1.265-0.151 0.268-0.301 0.537-0.453 0.804l-1.216 2.138-1.227 2.131c-0.65 1.117-1.299 2.232-1.96 3.343l-0.197-0.001c-0.022-0.002-0.045-0.003-0.068-0.003-0.756 0-1.368 0.612-1.368 1.368 0 0.674 0.488 1.232 1.13 1.347l0.524-0.009c0.345-0.072 0.641-0.275 0.836-0.555l9.711 1.538c-0.177 0.844-0.458 1.647-0.814 2.408l-10.131-1.24c0.075-0.107 0.13-0.232 0.13-0.374 0-0.365-0.296-0.662-0.662-0.662-0.365 0-0.662 0.297-0.662 0.662s0.297 0.662 0.662 0.662c0.102 0 0.194-0.027 0.28-0.067l10.269 1.257C23.492 52.134 19.74 54.643 15.393 54.643zM26.872 48.431c0.222-0.522 0.396-1.068 0.546-1.624 0.277 0.775 0.795 1.432 1.476 1.871L26.872 48.431zM32.068 48.463c0 0-0.515 0.251-1.171 0.251-0.655 0-1.17-0.251-1.17-0.251-0.329-0.16-0.378-0.494-0.109-0.742l0.812-0.747c0.021-0.02 0.05-0.028 0.073-0.044 0.123 0.038 0.252 0.063 0.388 0.063 0.143 0 0.273-0.04 0.402-0.081 0.037 0.023 0.078 0.039 0.11 0.069l0.778 0.734C32.449 47.966 32.397 48.303 32.068 48.463zM34.025 45.348c0 0 0.08 0.567-0.122 1.191-0.204 0.623-0.601 1.035-0.601 1.035-0.254 0.265-0.587 0.207-0.74-0.125l-0.459-1.004c-0.025-0.055-0.031-0.114-0.041-0.172 0.099-0.183 0.167-0.383 0.171-0.605 0.051-0.057 0.106-0.109 0.176-0.147l0.939-0.514C33.67 44.833 33.976 44.987 34.025 45.348zM33.562 43.901c0.174 0.322 0.016 0.621-0.348 0.664l-0.466 0.054 0.754-0.816C33.54 43.862 33.562 43.901 33.562 43.901zM33.011 42.503c-0.6-0.414-1.324-0.66-2.107-0.66-0.225 0-0.442 0.028-0.657 0.066l-4.47-15.179h20.215c0.132 0.396 0.264 0.791 0.396 1.187l0.028 0.084L33.011 42.503zM53.823 54.643c-6.121 0-11.083-4.961-11.083-11.082 0-4.145 2.279-7.752 5.649-9.653l0.681 2.029 0.45 1.336 0.112 0.334 0.032 0.095 0.029 0.082 0.066 0.172c0.092 0.227 0.186 0.449 0.286 0.668 0.407 0.877 0.884 1.709 1.426 2.5 0.27 0.395 0.555 0.781 0.863 1.15 0.155 0.185 0.315 0.365 0.488 0.54 0.168 0.175 0.35 0.344 0.554 0.498 0.107 0.099 0.274 0.091 0.373-0.017 0.098-0.107 0.09-0.275-0.018-0.373-0.01-0.009-0.023-0.005-0.034-0.012l0.003-0.003c-0.322-0.286-0.615-0.645-0.886-1.01-0.272-0.369-0.53-0.752-0.769-1.146-0.48-0.788-0.914-1.606-1.265-2.449-0.088-0.21-0.172-0.424-0.245-0.638l-0.055-0.158-0.028-0.083-0.021-0.073-0.103-0.338-0.41-1.348-0.665-2.192c1.394-0.632 2.938-0.993 4.567-0.993 6.122 0 11.082 4.962 11.082 11.082C64.905 49.682 59.945 54.643 53.823 54.643z" fill="#ed2647" data-fill-palette-color="accent"></path><circle cx="15.942" cy="45.565" r="0.66" fill="#ed2647" data-fill-palette-color="accent"></circle></g></svg></g></g></svg></g><defs></defs></svg><rect width="395.52" height="247.2" fill="none" stroke="none" visibility="hidden"></rect></g></svg></g></svg>